<svg width="252" height="60" viewBox="0 0 252 60" fill="none" xmlns="http://www.w3.org/2000/svg">
<path d="M249.471 0.240007H239.344C238.918 0.240007 238.508 0.409495 238.207 0.711188C237.905 1.01288 237.735 1.42206 237.735 1.84872V38.64H237.414L235.805 36.4039L205.408 0.803055C205.262 0.62559 205.077 0.483005 204.869 0.38562C204.66 0.288236 204.432 0.238494 204.202 0.240007H193.206C192.78 0.240007 192.37 0.409495 192.069 0.711188C191.767 1.01288 191.598 1.42206 191.598 1.84872V58.1055C191.598 58.5321 191.767 58.9413 192.069 59.243C192.37 59.5447 192.78 59.7142 193.206 59.7142H203.341C203.768 59.7142 204.177 59.5447 204.479 59.243C204.78 58.9413 204.95 58.5321 204.95 58.1055V21.3142H205.272L206.88 23.5422L237.301 59.1431C237.452 59.3172 237.639 59.4568 237.848 59.5526C238.058 59.6483 238.285 59.6979 238.516 59.6981H249.503C249.93 59.6981 250.339 59.5286 250.641 59.2269C250.942 58.9252 251.112 58.516 251.112 58.0894V1.84068C251.111 1.62737 251.067 1.41638 250.984 1.22001C250.901 1.02364 250.779 0.845796 250.627 0.69684C250.474 0.547884 250.293 0.430787 250.095 0.352359C249.896 0.273931 249.684 0.235738 249.471 0.240007Z" fill="#EBEDF0"/>
<path d="M30.1151 0.239685H1.60871C1.18206 0.239685 0.772873 0.409173 0.47118 0.710865C0.169488 1.01256 0 1.42174 0 1.8484V58.1051C0 58.5318 0.169488 58.941 0.47118 59.2427C0.772873 59.5444 1.18206 59.7138 1.60871 59.7138H30.6943C38.4757 59.705 45.9441 56.6488 51.4995 51.2002C57.055 45.7515 60.2554 38.3437 60.4153 30.5639C60.729 13.8816 46.7734 0.239685 30.1151 0.239685ZM29.5038 47.2463H14.8323C14.4057 47.2463 13.9965 47.0768 13.6948 46.7751C13.3931 46.4734 13.2236 46.0643 13.2236 45.6376V14.3159C13.2236 13.8893 13.3931 13.4801 13.6948 13.1784C13.9965 12.8767 14.4057 12.7072 14.8323 12.7072H30.7023C40.1616 12.7072 46.9986 20.3245 47.1031 29.7596C47.1997 39.3717 39.1159 47.2463 29.4958 47.2463H29.5038Z" fill="#EBEDF0"/>
<path d="M184.619 29.996C184.619 13.4358 171.485 0.0159004 155.275 0H148.7C132.474 0 119.324 13.4279 119.324 29.996C119.324 46.5642 132.497 60 148.7 60H155.354C171.533 59.9284 184.619 46.5245 184.619 29.996ZM155.203 47.4864H148.668C139.239 47.4864 132.458 39.6793 132.458 30.0517C132.458 20.424 139.239 12.6169 148.668 12.6169H155.203C164.64 12.6169 171.421 20.424 171.421 30.0517C171.421 39.6793 164.672 47.4944 155.235 47.4944L155.203 47.4864Z" fill="#EBEDF0"/>
<path d="M76.9098 12.7072H64.2935C63.871 12.7072 63.4658 12.5377 63.1671 12.236C62.8683 11.9343 62.7005 11.5252 62.7005 11.0985V1.87252C62.7005 1.44586 62.8683 1.03668 63.1671 0.734986C63.4658 0.433293 63.871 0.263806 64.2935 0.263806H87.535C87.7675 0.260778 87.9978 0.309184 88.2098 0.405614C88.4218 0.502043 88.6103 0.644158 88.7621 0.821993C88.9139 0.999828 89.0253 1.20907 89.0885 1.43502C89.1517 1.66097 89.1652 1.89815 89.128 2.12992C88.6819 5.07783 87.2036 7.76639 84.9617 9.70726C82.7197 11.6481 79.8628 12.7126 76.9098 12.7072Z" fill="#EBEDF0"/>
<path d="M82.5921 45.6857V30.0329C82.5921 22.1397 85.7277 14.5698 91.309 8.98853C96.8903 3.40722 104.46 0.271667 112.353 0.271667H114.051C114.477 0.271667 114.886 0.441168 115.188 0.74286C115.49 1.04455 115.659 1.45372 115.659 1.88038V11.0983C115.659 11.525 115.49 11.9342 115.188 12.2359C114.886 12.5375 114.477 12.707 114.051 12.707H97.5049C97.0783 12.707 96.6691 12.8765 96.3674 13.1782C96.0657 13.4799 95.8962 13.8891 95.8962 14.3157V29.9283C95.8962 37.8215 92.7607 45.3914 87.1794 50.9727C81.598 56.554 74.0282 59.6895 66.135 59.6895H64.3493C63.9227 59.6895 63.5135 59.52 63.2118 59.2184C62.9101 58.9167 62.7406 58.5075 62.7406 58.0808V48.8388C62.7406 48.4121 62.9101 48.0029 63.2118 47.7012C63.5135 47.3995 63.9227 47.23 64.3493 47.23H81.0075C81.4191 47.2242 81.8128 47.0608 82.1075 46.7736C82.4023 46.4863 82.5757 46.0969 82.5921 45.6857Z" fill="#EBEDF0"/>
<path d="M101.433 47.2369H113.986C114.411 47.2369 114.818 47.4064 115.118 47.7081C115.419 48.0098 115.587 48.4189 115.587 48.8456V58.1037C115.587 58.5304 115.419 58.9396 115.118 59.2413C114.818 59.543 114.411 59.7125 113.986 59.7125H90.7693C90.5356 59.7155 90.3041 59.6671 90.091 59.5707C89.878 59.4742 89.6885 59.3321 89.5359 59.1543C89.3833 58.9764 89.2713 58.7672 89.2078 58.5413C89.1442 58.3153 89.1307 58.0781 89.1681 57.8463C89.6107 54.896 91.0917 52.203 93.3422 50.2562C95.5926 48.3095 98.4634 47.2382 101.433 47.2369Z" fill="#EBEDF0"/>
</svg>
